<svg width="20" height="17" viewBox="0 0 20 17" fill="none" xmlns="http://www.w3.org/2000/svg">
<path d="M14.5652 15.5863C13.6358 15.5863 12.6571 15.4063 11.6455 15.0596C10.6585 14.7196 9.6633 14.2529 8.69279 13.6863C7.7305 13.1129 6.80111 12.4729 5.92106 11.7729C5.04925 11.0596 4.25967 10.3063 3.56058 9.53294C2.85325 8.73294 2.28575 7.93294 1.88274 7.15961C1.45505 6.33294 1.24121 5.53294 1.24121 4.77961C1.24121 4.25961 1.35636 3.76628 1.57842 3.30628C1.80871 2.83294 2.17883 2.39294 2.68053 2.01294C3.31383 1.50628 4.03761 1.25294 4.81073 1.25294C5.13149 1.25294 5.46048 1.31294 5.74012 1.41961C6.06088 1.53961 6.3323 1.71961 6.52969 1.95961L8.43782 4.13961C8.61054 4.33294 8.74213 4.51961 8.8326 4.70628C8.93953 4.90628 8.9971 5.10628 8.9971 5.29961C8.9971 5.55294 8.90663 5.79961 8.73391 6.03294C8.61054 6.21294 8.42137 6.40628 8.18285 6.59961L7.62358 7.07294C7.6318 7.09294 7.64002 7.10628 7.64825 7.11961C7.74695 7.25961 7.94434 7.49961 8.32267 7.85961C8.72568 8.23294 9.10402 8.57294 9.48236 8.88628C9.96761 9.27294 10.3706 9.57961 10.749 9.83294C11.2178 10.1529 11.5221 10.3129 11.703 10.3863L11.6866 10.4196L12.287 9.93961C12.5419 9.73294 12.7887 9.57961 13.0272 9.47961C13.4796 9.25294 14.0553 9.21294 14.631 9.40628C14.8449 9.47961 15.0752 9.57961 15.3219 9.71961L18.0525 11.2929C18.3568 11.4596 18.5789 11.6729 18.7105 11.9263C18.8338 12.1796 18.8914 12.4129 18.8914 12.6463C18.8914 12.9663 18.8009 13.2863 18.6282 13.5863C18.4555 13.8863 18.2417 14.1463 17.9702 14.3863C17.5014 14.8063 16.9915 15.1063 16.3993 15.2996C15.8318 15.4863 15.215 15.5863 14.5652 15.5863ZM4.81073 2.25294C4.35837 2.25294 3.93891 2.41294 3.5359 2.73294C3.15757 3.01961 2.89437 3.33294 2.72988 3.67294C2.55716 4.01961 2.47492 4.38628 2.47492 4.77961C2.47492 5.39961 2.65586 6.07294 3.01775 6.76628C3.38786 7.47294 3.90601 8.20628 4.56399 8.93961C5.22196 9.67294 5.97041 10.3863 6.79288 11.0596C7.61535 11.7196 8.50362 12.3329 9.41656 12.8729C10.3048 13.3996 11.2178 13.8263 12.1225 14.1329C13.5289 14.6196 14.8449 14.7329 15.9305 14.3663C16.35 14.2263 16.7201 14.0129 17.0573 13.7063C17.2465 13.5396 17.3945 13.3596 17.5179 13.1463C17.6166 12.9796 17.6659 12.8063 17.6659 12.6329C17.6659 12.5263 17.6413 12.4196 17.5755 12.2996C17.5508 12.2596 17.5014 12.1863 17.3452 12.0996L14.6146 10.5263C14.4501 10.4329 14.302 10.3663 14.1622 10.3196C13.9813 10.2596 13.9072 10.1996 13.6276 10.3396C13.4631 10.4063 13.3151 10.5063 13.1506 10.6396L12.5255 11.1396C12.2047 11.3929 11.7112 11.4529 11.3329 11.3396L11.1108 11.2596C10.7736 11.1129 10.3788 10.8863 9.94294 10.5863C9.54815 10.3129 9.12047 9.99294 8.60231 9.57961C8.1993 9.24628 7.79629 8.89294 7.37683 8.49961C6.99027 8.13294 6.71063 7.81961 6.53792 7.55961L6.43922 7.35961C6.38987 7.20628 6.37342 7.11961 6.37342 7.02628C6.37342 6.78628 6.48034 6.57294 6.68596 6.40628L7.30281 5.88628C7.46731 5.75294 7.59068 5.62628 7.67292 5.51294C7.73872 5.42628 7.7634 5.35294 7.7634 5.28628C7.7634 5.23294 7.73872 5.15294 7.6976 5.07294C7.64002 4.96628 7.54955 4.84628 7.43441 4.71961L5.52628 2.53294C5.44403 2.43961 5.34533 2.37294 5.22196 2.32628C5.09037 2.27961 4.95055 2.25294 4.81073 2.25294ZM11.6866 10.4263L11.555 10.8796L11.777 10.4129C11.7359 10.4063 11.703 10.4129 11.6866 10.4263Z" fill="white"/>
<path d="M15.4286 6.91962C15.0914 6.91962 14.8117 6.69295 14.8117 6.41962C14.8117 6.17962 14.5157 5.67962 14.0222 5.25296C13.5369 4.83296 13.0023 4.58629 12.55 4.58629C12.2127 4.58629 11.9331 4.35962 11.9331 4.08629C11.9331 3.81296 12.2127 3.58629 12.55 3.58629C13.3478 3.58629 14.1867 3.93295 14.9187 4.56629C15.6013 5.15962 16.0455 5.88629 16.0455 6.41962C16.0455 6.69295 15.7658 6.91962 15.4286 6.91962Z" fill="white"/>
<path d="M18.3072 6.91961C17.97 6.91961 17.6904 6.69294 17.6904 6.41961C17.6904 4.11961 15.3875 2.25294 12.55 2.25294C12.2127 2.25294 11.9331 2.02628 11.9331 1.75294C11.9331 1.47961 12.2127 1.25294 12.55 1.25294C16.0619 1.25294 18.9241 3.57294 18.9241 6.41961C18.9241 6.69294 18.6445 6.91961 18.3072 6.91961Z" fill="white"/>
</svg>
