<svg width="54" height="48" viewBox="0 0 54 48" fill="none" xmlns="http://www.w3.org/2000/svg">
<rect width="54" height="48" rx="8" fill="#4567B7"/>
<path d="M26.5 33.75C20.85 33.75 16.25 29.15 16.25 23.5C16.25 17.85 20.85 13.25 26.5 13.25C32.15 13.25 36.75 17.85 36.75 23.5C36.75 29.15 32.15 33.75 26.5 33.75ZM26.5 14.75C21.67 14.75 17.75 18.68 17.75 23.5C17.75 28.32 21.67 32.25 26.5 32.25C31.33 32.25 35.25 28.32 35.25 23.5C35.25 18.68 31.33 14.75 26.5 14.75Z" fill="white"/>
<path d="M36.9999 34.7499C36.8099 34.7499 36.6199 34.6799 36.4699 34.5299L34.4699 32.5299C34.1799 32.2399 34.1799 31.7599 34.4699 31.4699C34.7599 31.1799 35.2399 31.1799 35.5299 31.4699L37.5299 33.4699C37.8199 33.7599 37.8199 34.2399 37.5299 34.5299C37.3799 34.6799 37.1899 34.7499 36.9999 34.7499Z" fill="white"/>
</svg>
