<svg width="30" height="30" viewBox="0 0 30 30" fill="none" xmlns="http://www.w3.org/2000/svg">
<path d="M8.70098 0H21.301C26.101 0 30.001 3.9 30.001 8.7V21.3C30.001 23.6074 29.0844 25.8203 27.4528 27.4518C25.8212 29.0834 23.6084 30 21.301 30H8.70098C3.90098 30 0.000976562 26.1 0.000976562 21.3V8.7C0.000976563 6.39262 0.917581 4.17974 2.54915 2.54817C4.18071 0.916605 6.39359 0 8.70098 0ZM8.40098 3C6.96881 3 5.5953 3.56893 4.5826 4.58162C3.5699 5.59432 3.00098 6.96783 3.00098 8.4V21.6C3.00098 24.585 5.41598 27 8.40098 27H21.601C23.0331 27 24.4067 26.4311 25.4194 25.4184C26.4321 24.4057 27.001 23.0322 27.001 21.6V8.4C27.001 5.415 24.586 3 21.601 3H8.40098ZM22.876 5.25C23.3733 5.25 23.8502 5.44754 24.2018 5.79917C24.5534 6.15081 24.751 6.62772 24.751 7.125C24.751 7.62228 24.5534 8.09919 24.2018 8.45082C23.8502 8.80246 23.3733 9 22.876 9C22.3787 9 21.9018 8.80246 21.5501 8.45082C21.1985 8.09919 21.001 7.62228 21.001 7.125C21.001 6.62772 21.1985 6.15081 21.5501 5.79917C21.9018 5.44754 22.3787 5.25 22.876 5.25ZM15.001 7.5C16.9901 7.5 18.8978 8.29018 20.3043 9.6967C21.7108 11.1032 22.501 13.0109 22.501 15C22.501 16.9891 21.7108 18.8968 20.3043 20.3033C18.8978 21.7098 16.9901 22.5 15.001 22.5C13.0119 22.5 11.1042 21.7098 9.69768 20.3033C8.29115 18.8968 7.50098 16.9891 7.50098 15C7.50098 13.0109 8.29115 11.1032 9.69768 9.6967C11.1042 8.29018 13.0119 7.5 15.001 7.5ZM15.001 10.5C13.8075 10.5 12.6629 10.9741 11.819 11.818C10.9751 12.6619 10.501 13.8065 10.501 15C10.501 16.1935 10.9751 17.3381 11.819 18.182C12.6629 19.0259 13.8075 19.5 15.001 19.5C16.1945 19.5 17.339 19.0259 18.183 18.182C19.0269 17.3381 19.501 16.1935 19.501 15C19.501 13.8065 19.0269 12.6619 18.183 11.818C17.339 10.9741 16.1945 10.5 15.001 10.5Z" fill="white"/>
</svg>
