<svg width="21" height="21" viewBox="0 0 21 21" fill="none" xmlns="http://www.w3.org/2000/svg">
<path d="M10.7567 12.074C9.00483 12.074 7.57373 10.6511 7.57373 8.89106C7.57373 7.13097 9.00483 5.71632 10.7567 5.71632C12.5085 5.71632 13.9396 7.1392 13.9396 8.89928C13.9396 10.6594 12.5085 12.074 10.7567 12.074ZM10.7567 6.95003C9.68748 6.95003 8.80743 7.82185 8.80743 8.89928C8.80743 9.97672 9.67925 10.8485 10.7567 10.8485C11.8341 10.8485 12.7059 9.97672 12.7059 8.89928C12.7059 7.82185 11.8259 6.95003 10.7567 6.95003Z" fill="white"/>
<path d="M10.7569 19.139C9.53967 19.139 8.31419 18.6784 7.36012 17.7655C4.93384 15.4297 2.25259 11.7039 3.26423 7.27079C4.17717 3.24892 7.68911 1.44771 10.7569 1.44771C10.7569 1.44771 10.7569 1.44771 10.7651 1.44771C13.833 1.44771 17.3449 3.24892 18.2578 7.27902C19.2613 11.7121 16.58 15.4297 14.1537 17.7655C13.1997 18.6784 11.9742 19.139 10.7569 19.139ZM10.7569 2.68141C8.36354 2.68141 5.2875 3.95624 4.47326 7.54221C3.58499 11.416 6.0195 14.7553 8.22372 16.869C9.64659 18.2425 11.8755 18.2425 13.2984 16.869C15.4943 14.7553 17.9289 11.416 17.057 7.54221C16.2346 3.95624 13.1503 2.68141 10.7569 2.68141Z" fill="white"/>
</svg>
